DBRep_DrawableShape

CASCADE Topology V1, (c) Matra-Datavision
Locations 28
1
              1               0               0               0 
              0               1               0               0 
              0               0               1               0 
1
              1               0               0               0 
              0               1               0               0 
              0               0               1               0 
2  2 -1 0
1
              1               0               0               0 
              0               1               0               0 
              0               0               1               0 
2  4 -1 2 -1 0
1
              1               0               0               0 
              0               1               0               0 
              0               0               1               0 
2  6 -1 0
2  2 -1 6 -1 0
2  4 -1 2 -1 6 -1 0
1
              1               0               0               0 
              0               1               0               0 
              0               0               1              10 
2  6 1 10 1 0
2  10 -1 6 -1 0
2  2 -1 10 -1 6 -1 0
2  4 -1 2 -1 10 -1 6 -1 0
2  6 1 2 1 0
1
              1               0               0               0 
              0               1               0               0 
              0               0               1               0 
2  16 -1 0
2  4 -1 16 -1 0
2  6 1 10 1 2 1 0
1
              1               0               0               0 
              0               1               0               0 
              0               0               1               0 
2  20 1 16 1 0
2  16 -1 20 -1 0
2  4 -1 16 -1 20 -1 0
2  10 1 2 1 0
1
              1               0               0               0 
              0               1               0               0 
              0               0               1              10 
2  20 1 25 1 16 1 0
2  16 -1 25 -1 20 -1 0
2  4 -1 16 -1 25 -1 20 -1 0
Curve2ds 4
1 3.0845350825422315 0 0 -1 
1 0 0 1 0 
1 4.7123862042039635 0 0 -1 
1 0 -10 1 0 
Curves 28
1 -68.576133999999996 24.246561 0 0 0 1 
1 -68.576133999999996 56.579721182282427 0 0 0 1 
1 -68.576133999999996 24.246561 0 0 1 0 
1 -68.576133999999996 24.246561 0 0 1 0 
1 -68.576133999999996 24.246561 0 1 0 0 
1 -47.672642000000003 24.246561 0 0 0 1 
1 -68.576133999999996 24.246561 0 1 0 0 
1 -68.576133999999996 56.579721182282427 0 1 0 0 
1 -68.576133999999996 56.579721182282427 0 1 0 0 
1 -31.082915289947735 56.579721182282427 0 0 0 1 
1 -31.082915289947735 56.579721182282427 0 -0.45650442233651656 -0.88972114304831684 0 
1 -31.082915289947735 56.579721182282427 0 -0.45650442233651656 -0.88972114304831684 0 
1 -68.576133999999996 24.246561 0 1 0 0 
1 -13.960193613385329 24.246561 0 0 0 1 
1 -68.576133999999996 24.246561 0 1 0 0 
2 -13.960146 55.601675962840226 0 0 0 1 1 0 0 0 1 0 17.15067930456549
1 -13.960193613385329 38.45099665827474 0 0 -1 0 
1 -13.960193613385329 38.450996658307787 0 0 0 1 
1 -13.960193613385329 38.45099665827474 0 0 -1 0 
2 -13.960146 55.601675962840226 0 0 0 1 1 0 0 0 1 0 17.15067930456549
1 -68.576133999999996 24.246561 0 1 0 0 
1 47.268551000000002 24.246561 0 0 0 1 
1 -68.576133999999996 24.246561 0 1 0 0 
1 47.268551000000002 38.45099665827474 0 -1 0 0 
1 47.268551000000002 24.246561 0 0 1 0 
1 47.268551000000002 38.45099665827474 0 0 0 1 
1 47.268551000000002 24.246561 0 0 1 0 
1 47.268551000000002 38.45099665827474 0 -1 0 0 
Polygon3D 0
PolygonOnTriangulations 64
2 1 2 
p 0.105505620558755 1 0 10 
2 1 4 
p 0.105505620558755 1 0 10 
2 3 4 
p 0.105505620558755 1 0 10 
2 1 2 
p 0.105505620558755 1 0 10 
2 1 3 
p 0.105505620558755 1 0 32.3331601822824 
2 1 2 
p 0.105505620558755 1 0 32.3331601822824 
2 2 4 
p 0.105505620558755 1 0 32.3331601822824 
2 1 2 
p 0.105505620558755 1 0 32.3331601822824 
2 1 2 
p 0.105505620558755 1 0 20.903492 
2 1 4 
p 0.105505620558755 1 0 20.903492 
2 2 3 
p 0.105505620558755 1 0 10 
2 3 4 
p 0.105505620558755 1 0 10 
2 1 4 
p 0.105505620558755 1 0 10 
2 4 3 
p 0.105505620558755 1 0 20.903492 
2 1 4 
p 0.105505620558755 1 0 20.903492 
2 1 3 
p 0.105505620558755 1 0 37.4932187100523 
2 2 3 
p 0.105505620558755 1 0 37.4932187100523 
2 2 4 
p 0.105505620558755 1 0 37.4932187100523 
2 2 3 
p 0.105505620558755 1 0 37.4932187100523 
2 1 2 
p 0.105505620558755 1 0 10 
2 3 4 
p 0.105505620558755 1 0 10 
2 1 2 
p 0.105505620558755 1 0 10 
2 3 4 
p 0.105505620558755 1 0 36.3407798442377 
2 1 3 
p 0.105505620558755 1 0 36.3407798442377 
2 1 2 
p 0.105505620558755 1 0 36.3407798442377 
2 3 4 
p 0.105505620558755 1 0 36.3407798442377 
2 2 4 
p 0.105505620558755 1 0 36.3407798442377 
2 1 2 
p 0.105505620558755 1 0 36.3407798442377 
2 1 2 
p 0.105505620558755 1 20.903492 54.6159403866147 
2 2 23 
p 0.105505620558755 1 20.903492 54.6159403866147 
2 2 3 
p 0.105505620558755 1 0 10 
2 3 4 
p 0.105505620558755 1 0 10 
2 1 4 
p 0.105505620558755 1 0 10 
2 4 3 
p 0.105505620558755 1 20.903492 54.6159403866147 
2 2 23 
p 0.105505620558755 1 20.903492 54.6159403866147 
21 1 4 5 6 7 8 9 10 11 12 13 14 15 16 17 18 19 20 21 22 3 
p 0.105505620558755 1 3.08453508254223 3.16592763862532 3.2473201947084 3.32871275079149 3.41010530687458 3.49149786295766 3.57289041904075 3.65428297512384 3.73567553120692 3.81706808729001 3.8984606433731 3.97985319945618 4.06124575553927 4.14263831162236 4.22403086770544 4.30542342378853 4.38681597987162 4.4682085359547 4.54960109203779 4.63099364812088 4.71238620420396 
21 1 4 5 6 7 8 9 10 11 12 13 14 15 16 17 18 19 20 21 22 3 
p 0.105505620558755 1 3.08453508254223 3.16592763862532 3.2473201947084 3.32871275079149 3.41010530687458 3.49149786295766 3.57289041904075 3.65428297512384 3.73567553120692 3.81706808729001 3.8984606433731 3.97985319945618 4.06124575553927 4.14263831162236 4.22403086770544 4.30542342378853 4.38681597987162 4.4682085359547 4.54960109203779 4.63099364812088 4.71238620420396 
2 3 23 
p 0.105505620558755 1 0 14.2044356582747 
2 1 3 
p 0.105505620558755 1 0 14.2044356582747 
2 1 2 
p 0.105505620558755 1 0 14.2044356582747 
2 3 23 
p 0.105505620558755 1 0 10 
2 1 2 
p 0.105505620558755 1 0 10 
2 3 4 
p 0.105505620558755 1 0 10 
2 2 4 
p 0.105505620558755 1 0 14.2044356582747 
2 3 23 
p 0.105505620558755 1 0 14.2044356582747 
2 1 2 
p 0.105505620558755 1 0 14.2044356582747 
21 2 24 25 26 27 28 29 30 31 32 33 34 35 36 37 38 39 40 41 42 23 
p 0.105505620558755 1 3.08453508254223 3.16592763862532 3.2473201947084 3.32871275079149 3.41010530687458 3.49149786295766 3.57289041904075 3.65428297512384 3.73567553120692 3.81706808729001 3.8984606433731 3.97985319945618 4.06124575553927 4.14263831162236 4.22403086770544 4.30542342378853 4.38681597987162 4.4682085359547 4.54960109203779 4.63099364812088 4.71238620420396 
21 1 4 5 6 7 8 9 10 11 12 13 14 15 16 17 18 19 20 21 22 3 
p 0.105505620558755 1 3.08453508254223 3.16592763862532 3.2473201947084 3.32871275079149 3.41010530687458 3.49149786295766 3.57289041904075 3.65428297512384 3.73567553120692 3.81706808729001 3.8984606433731 3.97985319945618 4.06124575553927 4.14263831162236 4.22403086770544 4.30542342378853 4.38681597987162 4.4682085359547 4.54960109203779 4.63099364812088 4.71238620420396 
2 1 2 
p 0.105505620558755 1 54.6159403866147 115.844685 
2 2 4 
p 0.105505620558755 1 54.6159403866147 115.844685 
2 2 3 
p 0.105505620558755 1 0 10 
2 1 2 
p 0.105505620558755 1 0 10 
2 4 3 
p 0.105505620558755 1 54.6159403866147 115.844685 
2 2 4 
p 0.105505620558755 1 54.6159403866147 115.844685 
2 3 1 
p 0.105505620558755 1 0 61.2287446133853 
2 1 3 
p 0.105505620558755 1 0 61.2287446133853 
2 4 3 
p 0.105505620558755 1 0 14.2044356582747 
2 1 3 
p 0.105505620558755 1 0 14.2044356582747 
2 3 4 
p 0.105505620558755 1 0 10 
2 1 2 
p 0.105505620558755 1 0 10 
2 2 4 
p 0.105505620558755 1 0 14.2044356582747 
2 4 3 
p 0.105505620558755 1 0 14.2044356582747 
2 3 1 
p 0.105505620558755 1 0 61.2287446133853 
2 2 4 
p 0.105505620558755 1 0 61.2287446133853 
Surfaces 16
1 -68.576133999999996 24.246561 0 -1 0 0 0 1 0 0 0 -1 
1 -68.576133999999996 24.246561 0 0 1 0 1 0 0 0 0 -1 
1 -68.576133999999996 56.579721182282427 0 0 1 0 1 0 0 0 0 -1 
2 -13.960146 55.601675962840226 0 -0 -0 -1 1 0 0 0 1 0 17.15067930456549
1 -14.940787882706735 35.634066861469705 0 0 0 1 1 0 0 0 1 0 
1 -14.940787882706735 35.634066861469705 0 0 0 1 1 0 0 0 1 0 
1 -31.082915289947735 56.579721182282427 0 0.88972114304831684 -0.45650442233651656 0 -0.45650442233651656 -0.88972114304831684 0 0 0 -1 
1 -68.576133999999996 24.246561 0 0 1 0 1 0 0 0 0 -1 
1 -14.940787882706735 35.634066861469705 0 0 0 1 1 0 0 0 1 0 
1 -13.960193613385329 38.45099665827474 0 1 0 0 0 -1 0 0 0 -1 
1 -14.940787882706735 35.634066861469705 0 0 0 1 1 0 0 0 1 0 
1 -68.576133999999996 24.246561 0 0 1 0 1 0 0 0 0 -1 
1 -14.940787882706735 35.634066861469705 0 0 0 1 1 0 0 0 1 0 
1 47.268551000000002 24.246561 0 -1 0 0 0 1 0 0 0 -1 
1 -14.940787882706735 35.634066861469705 0 0 0 1 1 0 0 0 1 0 
1 47.268551000000002 38.45099665827474 0 0 -1 0 -1 0 0 -0 -0 -1 
Triangulations 16
4 2 1 0
-68.576134 24.246561 0 -68.576134 24.246561 10 -68.576134 56.5797211822824 0 -68.576134 56.5797211822824 10 0 0 0 -10 32.3331601822824 0 32.3331601822824 -10 3 1 2 3 2 4 
4 2 1 8.88178419700125e-016
-68.576134 24.246561 0 -47.672642 24.246561 0 -47.672642 24.246561 10 -68.576134 24.246561 10 0 0 20.903492 0 20.903492 -10 0 -10 3 1 4 2 1 3 
4 2 1 0
-68.576134 56.5797211822824 0 -68.576134 56.5797211822824 10 -31.0829152899477 56.5797211822824 0 -31.0829152899477 56.5797211822824 10 0 0 0 -10 37.4932187100523 0 37.4932187100523 -10 3 1 2 3 2 4 
4 2 1 3.5527136788005e-015
-68.576134 24.246561 0 -68.576134 56.5797211822824 0 -31.0829152899477 56.5797211822824 0 -47.672642 24.246561 0 -53.6353461172933 -11.3875058614697 -53.6353461172933 20.9456543208127 -16.142127407241 20.9456543208127 -32.7318541172933 -11.3875058614697 2 1 4 3 2 4 
4 2 1 3.5527136788005e-015
-68.576134 24.246561 10 -68.576134 56.5797211822824 10 -31.0829152899477 56.5797211822824 10 -47.672642 24.246561 10 -53.6353461172933 -11.3875058614697 -53.6353461172933 20.9456543208127 -16.142127407241 20.9456543208127 -32.7318541172933 -11.3875058614697 2 1 4 3 2 4 
4 2 1 4.44089209850063e-015
-31.0829152899477 56.5797211822824 0 -31.0829152899477 56.5797211822824 10 -47.672642 24.246561 0 -47.672642 24.246561 10 0 0 0 -10 36.3407798442377 0 36.3407798442377 -10 3 1 2 3 2 4 
4 2 1 8.88178419700125e-016
-47.672642 24.246561 0 -13.9601936133853 24.246561 0 -13.9601936133853 24.246561 10 -47.672642 24.246561 10 20.903492 0 54.6159403866147 0 54.6159403866147 -10 20.903492 -10 2 4 3 2 1 4 
42 40 1 0.014200406411157
-31.0829152899477 56.5797211822824 0 -31.0829152899477 56.5797211822824 10 -13.9601936133853 38.4509966583078 0 -31.105747311945 55.1843556303858 0 -31.0150567350748 53.7917531946866 0 -30.8114440299646 52.4111344236401 0 -30.4962573350102 51.0516405207586 0 -30.0715835302275 49.7222728198648 0 -29.5402344198287 48.4318331864349 0 -28.9057281150087 47.18886573964 0 -28.1722657402082 46.0016002809492 0 -27.3447036170833 44.8778978038596 0 -26.4285211103545 43.8251984455372 0 -25.4297843484305 42.8504722249861 0 -24.3551060590152 41.9601728939138 0 -23.2116017856317 41.1601952058488 0 -22.0068427749552 40.4558358864372 0 -20.748805846895 39.851758563336 0 -19.4458205793379 39.351962887907 0 -18.1065141572493 38.9597580531581 0 -16.7397542512899 38.6777408832728 0 -15.3545903041552 38.5077786397995 0 -13.9601936133853 38.4509966583078 10 -31.105747311945 55.1843556303858 10 -31.0150567350748 53.7917531946866 10 -30.8114440299646 52.4111344236401 10 -30.4962573350102 51.0516405207586 10 -30.0715835302275 49.7222728198648 10 -29.5402344198287 48.4318331864349 10 -28.9057281150087 47.18886573964 10 -28.1722657402082 46.0016002809492 10 -27.3447036170833 44.8778978038596 10 -26.4285211103545 43.8251984455372 10 -25.4297843484305 42.8504722249861 10 -24.3551060590152 41.9601728939138 10 -23.2116017856317 41.1601952058488 10 -22.0068427749552 40.4558358864372 10 -20.748805846895 39.851758563336 10 -19.4458205793379 39.351962887907 10 -18.1065141572493 38.9597580531581 10 -16.7397542512899 38.6777408832728 10 -15.3545903041552 38.5077786397995 10 3.08453508254223 0 3.08453508254223 -10 4.71238620420396 0 3.16592763862532 0 3.2473201947084 0 3.32871275079149 0 3.41010530687458 0 3.49149786295766 0 3.57289041904075 0 3.65428297512384 0 3.73567553120692 0 3.81706808729001 0 3.8984606433731 0 3.97985319945618 0 4.06124575553927 0 4.14263831162236 0 4.22403086770544 0 4.30542342378853 0 4.38681597987162 0 4.4682085359547 0 4.54960109203779 0 4.63099364812088 0 4.71238620420396 -10 3.16592763862532 -10 3.2473201947084 -10 3.32871275079149 -10 3.41010530687458 -10 3.49149786295766 -10 3.57289041904075 -10 3.65428297512384 -10 3.73567553120692 -10 3.81706808729001 -10 3.8984606433731 -10 3.97985319945618 -10 4.06124575553927 -10 4.14263831162236 -10 4.22403086770544 -10 4.30542342378853 -10 4.38681597987162 -10 4.4682085359547 -10 4.54960109203779 -10 4.63099364812088 -10 21 20 40 21 40 41 22 21 41 22 41 42 22 42 23 1 2 24 3 22 23 4 1 24 5 24 25 5 4 24 6 25 26 6 5 25 7 26 27 7 6 26 8 27 28 8 7 27 9 28 29 9 8 28 10 29 30 10 9 29 11 30 31 11 10 30 12 31 32 12 11 31 13 32 33 13 12 32 14 33 34 14 13 33 15 34 35 15 14 34 16 35 36 16 15 35 17 16 36 17 36 37 18 17 37 18 37 38 18 38 39 19 18 39 20 19 39 20 39 40 
23 21 1 4.44089209850063e-015
-31.0829152899477 56.5797211822824 0 -47.672642 24.246561 0 -13.9601936133853 38.4509966583078 0 -31.105747311945 55.1843556303858 0 -31.0150567350748 53.7917531946866 0 -30.8114440299646 52.4111344236401 0 -30.4962573350102 51.0516405207586 0 -30.0715835302275 49.7222728198648 0 -29.5402344198287 48.4318331864349 0 -28.9057281150087 47.18886573964 0 -28.1722657402082 46.0016002809492 0 -27.3447036170833 44.8778978038596 0 -26.4285211103545 43.8251984455372 0 -25.4297843484305 42.8504722249861 0 -24.3551060590152 41.9601728939138 0 -23.2116017856317 41.1601952058488 0 -22.0068427749552 40.4558358864372 0 -20.748805846895 39.851758563336 0 -19.4458205793379 39.351962887907 0 -18.1065141572493 38.9597580531581 0 -16.7397542512899 38.6777408832728 0 -15.3545903041552 38.5077786397995 0 -13.9601936133853 24.246561 0 -16.142127407241 20.9456543208127 -32.7318541172933 -11.3875058614697 0.980594269321408 2.81692979683807 -16.1649594292383 19.5502887689161 -16.0742688523681 18.1576863332169 -15.8706561472579 16.7770675621704 -15.5554694523035 15.4175736592889 -15.1307956475207 14.0882059583951 -14.599446537122 12.7977663249652 -13.964940232302 11.5547988781703 -13.2314778575015 10.3675334194795 -12.4039157343765 9.24383094238993 -11.4877332276478 8.1911315840675 -10.4889964657237 7.21640536351643 -9.41431817630851 6.3261060324441 -8.27081390292494 5.52612834437911 -7.06605489224844 4.82176902496746 -5.80801796418824 4.21769170186626 -4.50503269663118 3.71789602643727 -3.16572627454256 3.32569119168835 -1.79896636858314 3.04367402180312 -0.413802421448452 2.87371177832976 0.980594269321408 -11.3875058614697 14 13 2 12 2 13 15 14 2 11 2 12 16 15 2 10 2 11 17 2 23 17 16 2 9 2 10 18 17 23 8 2 9 19 18 23 7 2 8 20 19 23 6 2 7 21 20 23 5 2 6 22 21 23 4 2 5 3 22 23 1 2 4 
23 21 1 4.44089209850063e-015
-31.0829152899477 56.5797211822824 10 -47.672642 24.246561 10 -13.9601936133853 38.4509966583078 10 -31.105747311945 55.1843556303858 10 -31.0150567350748 53.7917531946866 10 -30.8114440299646 52.4111344236401 10 -30.4962573350102 51.0516405207586 10 -30.0715835302275 49.7222728198648 10 -29.5402344198287 48.4318331864349 10 -28.9057281150087 47.18886573964 10 -28.1722657402082 46.0016002809492 10 -27.3447036170833 44.8778978038596 10 -26.4285211103545 43.8251984455372 10 -25.4297843484305 42.8504722249861 10 -24.3551060590152 41.9601728939138 10 -23.2116017856317 41.1601952058488 10 -22.0068427749552 40.4558358864372 10 -20.748805846895 39.851758563336 10 -19.4458205793379 39.351962887907 10 -18.1065141572493 38.9597580531581 10 -16.7397542512899 38.6777408832728 10 -15.3545903041552 38.5077786397995 10 -13.9601936133853 24.246561 10 -16.142127407241 20.9456543208127 -32.7318541172933 -11.3875058614697 0.980594269321408 2.81692979683807 -16.1649594292383 19.5502887689161 -16.0742688523681 18.1576863332169 -15.8706561472579 16.7770675621704 -15.5554694523035 15.4175736592889 -15.1307956475207 14.0882059583951 -14.599446537122 12.7977663249652 -13.964940232302 11.5547988781703 -13.2314778575015 10.3675334194795 -12.4039157343765 9.24383094238993 -11.4877332276478 8.1911315840675 -10.4889964657237 7.21640536351643 -9.41431817630851 6.3261060324441 -8.27081390292494 5.52612834437911 -7.06605489224844 4.82176902496746 -5.80801796418824 4.21769170186626 -4.50503269663118 3.71789602643727 -3.16572627454256 3.32569119168835 -1.79896636858314 3.04367402180312 -0.413802421448452 2.87371177832976 0.980594269321408 -11.3875058614697 14 13 2 12 2 13 15 14 2 11 2 12 16 15 2 10 2 11 17 2 23 17 16 2 9 2 10 18 17 23 8 2 9 19 18 23 7 2 8 20 19 23 6 2 7 21 20 23 5 2 6 22 21 23 4 2 5 3 22 23 1 2 4 
4 2 1 0
-13.9601936133853 38.4509966583078 0 -13.9601936133853 38.4509966583078 10 -13.9601936133853 24.246561 0 -13.9601936133853 24.246561 10 -3.30402372128447e-011 0 -3.30402372128447e-011 -10 14.2044356582747 0 14.2044356582747 -10 3 1 2 3 2 4 
4 2 1 8.88178419700125e-016
-13.9601936133853 24.246561 0 47.268551 24.246561 0 47.268551 24.246561 10 -13.9601936133853 24.246561 10 54.6159403866147 0 115.844685 0 115.844685 -10 54.6159403866147 -10 2 4 3 2 1 4 
4 2 1 0
-13.9601936133853 38.4509966583078 0 -13.9601936133853 24.246561 0 47.268551 38.4509966582747 0 47.268551 24.246561 0 0.980594269321406 2.81692979683807 0.980594269321406 -11.3875058614697 62.2093388827067 2.81692979680503 62.2093388827067 -11.3875058614697 3 1 2 3 2 4 
4 2 1 2.20268248085631e-011
47.268551 38.4509966582747 0 47.268551 38.4509966582747 10 -13.9601936133853 38.4509966583078 0 -13.9601936133853 38.4509966583078 10 0 0 0 -10 61.2287446133853 0 61.2287446133853 -10 3 1 2 3 2 4 
4 2 1 0
-13.9601936133853 38.4509966583078 10 -13.9601936133853 24.246561 10 47.268551 38.4509966582747 10 47.268551 24.246561 10 0.980594269321406 2.81692979683807 0.980594269321406 -11.3875058614697 62.2093388827067 2.81692979680503 62.2093388827067 -11.3875058614697 3 1 2 3 2 4 
4 2 1 0
47.268551 24.246561 0 47.268551 24.246561 10 47.268551 38.4509966582747 0 47.268551 38.4509966582747 10 0 0 0 -10 14.2044356582747 0 14.2044356582747 -10 3 1 2 3 2 4 

TShapes 84
Ve
1e-007
-68.576134 24.246561 0
0 0

0101101
*
Ve
1e-007
-68.576134 24.246561 10
0 0

0101101
*
Ed
 1e-007 1 1 0
1  1 0 0 10
6  1 1 0
6  2 2 3
0

0101000
+84 5 -83 5 *
Ve
1e-007
-68.576134 56.5797211822824 0
0 0

0101101
*
Ve
1e-007
-68.576134 56.5797211822824 10
0 0

0101101
*
Ed
 1e-007 1 1 0
1  2 0 0 10
6  3 1 0
6  4 3 3
0

0101000
+81 5 -80 5 *
Ed
 1e-007 1 1 0
1  3 0 0 32.3331601822824
6  5 1 7
6  6 4 8
0

0101000
+84 9 -81 9 *
Ed
 1e-007 1 1 0
1  4 0 0 32.3331601822824
6  7 1 12
6  8 5 13
0

0101000
+83 14 -80 14 *
Wi

0101100
+82 0 -79 0 -78 6 +77 11 *
Fa
0  1e-007 1 0
2  1
0101000
+76 0 *
Ve
1e-007
-47.672642 24.246561 0
0 0

0101101
*
Ed
 1e-007 1 1 0
1  5 0 0 20.903492
6  9 2 8
6  10 4 8
0

0101000
+84 9 -74 9 *
Ve
1e-007
-47.672642 24.246561 10
0 0

0101101
*
Ed
 1e-007 1 1 0
1  6 0 0 10
6  11 2 17
6  12 6 17
6  13 7 17
0

0101000
+74 18 -72 18 *
Ed
 1e-007 1 1 0
1  7 0 0 20.903492
6  14 2 13
6  15 5 13
0

0101000
+83 14 -72 14 *
Wi

0101100
-73 15 -71 16 +70 19 +82 2 *
Fa
0  1e-007 2 2
2  2
0101000
+69 0 *
Ve
1e-007
-31.0829152899477 56.5797211822824 0
0 0

0101101
*
Ed
 1e-007 1 1 0
1  8 0 0 37.4932187100523
6  16 3 8
6  17 4 8
0

0101000
+81 9 -67 9 *
Ve
1e-007
-31.0829152899477 56.5797211822824 10
0 0

0101101
*
Ed
 1e-007 1 1 0
1  9 0 0 37.4932187100523
6  18 3 13
6  19 5 13
0

0101000
+80 14 -65 14 *
Ed
 1e-007 1 1 0
1  10 0 0 10
2  1 4 0 0 10
6  20 8 3
6  21 3 3
6  22 6 3
0

0101000
+67 5 -65 5 *
Wi

0101100
+79 2 -66 15 +64 19 -63 2 *
Fa
0  1e-007 3 2
2  3
0101000
+62 0 *
Ed
 1e-007 1 1 0
1  11 0 0 36.3407798442377
6  23 4 22
6  24 6 22
6  25 9 22
0

0101000
+67 23 -74 23 *
Wi

0101100
-78 15 -66 15 -60 21 +73 15 *
Fa
0  1e-007 5 2
2  4
0101000
+59 0 *
Ed
 1e-007 1 1 0
1  12 0 0 36.3407798442377
6  26 5 27
6  27 6 27
6  28 10 27
0

0101000
+65 28 -72 28 *
Wi

0101100
-77 19 -64 19 -57 26 +70 19 *
Fa
0  1e-007 6 24
2  5
0101000
+56 0 *
Wi

0101100
+63 2 -60 21 +57 26 -71 16 *
Fa
0  1e-007 7 16
2  6
0101000
+54 0 *
Sh

0101100
+75 2 -68 0 +61 0 -58 0 +55 0 +53 0 *
So

0100000
+52 0 *
Ve
1e-007
-13.9601936133853 24.246561 0
0 0

0101101
*
Ed
 1e-007 1 1 0
1  13 0 20.903492 54.6159403866147
6  29 7 8
6  30 9 8
0

0101000
+74 9 -50 9 *
Ve
1e-007
-13.9601936133853 24.246561 10
0 0

0101101
*
Ed
 1e-007 1 1 0
1  14 0 0 10
6  31 7 17
6  32 11 17
6  33 12 17
0

0101000
+50 18 -48 18 *
Ed
 1e-007 1 1 0
1  15 0 20.903492 54.6159403866147
6  34 7 13
6  35 10 13
0

0101000
+72 14 -48 14 *
Wi

0101100
-49 15 -47 16 +46 19 +71 16 *
Fa
0  1e-007 8 2
2  7
0101000
+45 0 *
Ve
1.0003304734264e-007
-13.9601936133853 38.4509966583078 0
0 0

0101101
*
Ed
 1e-007 1 1 0
1  16 0 3.08453508254223 4.71238620420396
2  2 4 7 3.08453508254223 4.71238620420396
6  36 8 8
6  37 9 8
0

0101000
+67 9 -43 9 *
Ed
 1e-007 1 1 0
1  17 0 0 14.2044356582747
6  38 9 22
6  39 11 22
6  40 13 22
0

0101000
+43 23 -50 23 *
Wi

0101100
+60 21 -42 15 -41 21 +49 15 *
Fa
0  1e-007 9 2
2  9
0101000
+40 0 *
Ve
1.0003304734264e-007
-13.9601936133853 38.4509966583078 10
0 0

0101101
*
Ed
 1.0003304734264e-007 1 1 0
1  18 0 0 10
2  3 4 0 0 10
6  41 8 3
6  42 11 3
6  43 14 3
0

0101000
+43 5 -38 5 *
Ed
 1e-007 1 1 0
1  19 0 0 14.2044356582747
6  44 11 27
6  45 10 27
6  46 15 27
0

0101000
+38 28 -48 28 *
Wi

0101100
+37 2 -41 21 +36 26 -47 16 *
Fa
0  1e-007 10 16
2  11
0101000
+35 0 *
Ed
 1e-007 1 1 0
1  20 0 3.08453508254223 4.71238620420396
2  4 4 12 3.08453508254223 4.71238620420396
6  47 8 13
6  48 10 13
0

0101000
+65 14 -38 14 *
Wi

0101100
+57 26 -33 19 -36 26 +46 19 *
Fa
0  1e-007 11 24
2  10
0101000
+32 0 *
Wi

0101100
+63 2 -42 15 +33 19 -37 2 *
Fa
0  1e-007 4 2
2  8
0101000
+30 0 *
Sh

0101100
-44 0 -39 0 +34 0 +31 0 -53 0 +29 0 *
So

0100000
+28 0 *
Ve
1e-007
47.268551 24.246561 0
0 0

0101101
*
Ed
 1e-007 1 1 0
1  21 0 54.6159403866147 115.844685
6  49 12 8
6  50 13 8
0

0101000
+50 9 -26 9 *
Ve
1e-007
47.268551 24.246561 10
0 0

0101101
*
Ed
 1e-007 1 1 0
1  22 0 0 10
6  51 12 3
6  52 16 0
0

0101000
+26 5 -24 5 *
Ed
 1e-007 1 1 0
1  23 0 54.6159403866147 115.844685
6  53 12 13
6  54 15 13
0

0101000
+48 14 -24 14 *
Wi

0101100
-25 15 -23 2 +22 19 +47 16 *
Fa
0  1e-007 12 2
2  12
0101000
+21 0 *
Ve
1e-007
47.268551 38.4509966582747 0
0 0

0101101
*
Ed
 1e-007 1 1 0
1  24 0 0 61.2287446133853
6  55 13 8
6  56 14 8
0

0101000
+19 9 -43 9 *
Ed
 1e-007 1 1 0
1  25 0 0 14.2044356582747
6  57 13 8
6  58 16 7
0

0101000
+26 9 -19 9 *
Wi

0101100
+41 21 +18 15 +17 15 +25 15 *
Fa
0  1e-007 13 2
2  13
0101000
+16 0 *
Ve
1e-007
47.268551 38.4509966582747 10
0 0

0101101
*
Ed
 1e-007 1 1 0
1  26 0 0 10
6  59 16 0
6  60 14 3
0

0101000
+19 5 -14 5 *
Ed
 1e-007 1 1 0
1  27 0 0 14.2044356582747
6  61 16 12
6  62 15 13
0

0101000
+24 14 -14 14 *
Wi

0101100
+23 0 -13 0 -17 6 +12 11 *
Fa
0  1e-007 14 0
2  16
0101000
+11 0 *
Ed
 1e-007 1 1 0
1  28 0 0 61.2287446133853
6  63 15 13
6  64 14 13
0

0101000
+14 14 -38 14 *
Wi

0101100
+36 26 +9 19 +12 19 +22 19 *
Fa
0  1e-007 15 24
2  15
0101000
+8 0 *
Wi

0101100
+13 2 -18 15 +9 19 -37 2 *
Fa
0  1e-007 16 2
2  14
0101000
+6 0 *
Sh

0101100
-20 0 -15 0 -10 2 +7 0 -34 0 -5 0 *
So

0100000
+4 0 *
CS

0101000
+51 0 +27 0 +3 0 *
Co

1100000
+2 1 *

+1 0 